<?xml version="1.0" encoding="UTF-8" standalone="no"?>
<!-- Created with Inkscape (http://www.inkscape.org/) -->

<svg
   width="297mm"
   height="210mm"
   viewBox="0 0 297 210"
   version="1.1"
   id="svg1"
   xmlns="http://www.w3.org/2000/svg"
   xmlns:svg="http://www.w3.org/2000/svg">
  <defs
     id="defs1" />
  <g
     id="layer1">
    <text
       xml:space="preserve"
       style="font-size:74.8993px;font-family:'Palatino Linotype';-inkscape-font-specification:'Palatino Linotype';text-align:start;writing-mode:lr-tb;direction:ltr;text-anchor:start;fill:#ffffff;stroke-width:6.24158"
       x="33.894634"
       y="127.96299"
       id="text1-5-5"
       transform="scale(1.0514648,0.95105418)"><tspan
         id="tspan1-5-2"
         style="font-style:normal;font-variant:normal;font-weight:normal;font-stretch:normal;font-family:'FONTSPRING DEMO - Tradesman SC ExCond Black';-inkscape-font-specification:'FONTSPRING DEMO - Tradesman SC ExCond Black, ';fill:#ffffff;stroke-width:6.24158"
         x="33.894634"
         y="127.96299">PEMBURU</tspan></text>
    <path
       style="fill:#ff6600;stroke-width:1.14662"
       d="m 141.45542,63.22822 -7.11538,-7.582036 1.23835,-1.287603 c 0.6811,-0.70818 1.28876,-1.2876 1.35034,-1.2876 0.0617,0 0.31,0.202022 0.55201,0.448973 l 0.44003,0.448989 -0.8082,0.871572 -0.8082,0.87158 6.13033,6.506097 6.13031,6.506116 6.1409,-6.539053 6.14084,-6.539071 -0.80028,-0.783597 -0.80029,-0.783595 0.47018,-0.570335 0.47021,-0.570325 1.29069,1.394557 1.29071,1.394574 -1.60885,1.738929 c -0.88485,0.956422 -1.68545,1.692478 -1.77911,1.635687 -0.0937,-0.05685 -0.11604,-0.03973 -0.0494,0.03807 0.15532,0.181993 -7.22546,8.068068 -7.42704,7.935397 -0.0835,-0.05489 -0.10797,-0.02446 -0.0538,0.06848 0.0538,0.09267 -0.66188,0.955487 -1.59036,1.917333 l -1.68815,1.748818 z m 9.95432,3.964863 c 0.0531,-0.09131 0.0208,-0.166314 -0.0687,-0.166314 -0.0908,0 -0.16521,0.07501 -0.16521,0.166314 0,0.09131 0.031,0.166313 0.0687,0.166313 0.0377,0 0.11213,-0.075 0.16521,-0.166313 z m 9.58919,-12.709895 c 0,-0.09134 -0.0682,-0.054 -0.15116,0.08313 -0.0833,0.137045 -0.15116,0.323977 -0.15116,0.415354 0,0.09134 0.0682,0.054 0.15116,-0.08313 0.0832,-0.137072 0.15116,-0.323976 0.15116,-0.415354 z m -13.95103,7.769109 -1.54808,-1.577994 0.80999,-0.822871 c 0.44547,-0.452606 0.80995,-0.875317 0.80995,-0.939385 0,-0.06411 -0.57915,-0.722752 -1.28702,-1.463719 l -1.287,-1.347212 -2.33996,-0.63029 -2.34002,-0.630279 -1.55999,-1.711457 c -0.85799,-0.941291 -3.75371,-4.082117 -6.43494,-6.979606 -2.68126,-2.897506 -4.87501,-5.298876 -4.87501,-5.336398 0,-0.03745 0.29834,0.117262 0.663,0.343992 1.31036,0.814708 1.94924,1.181798 4.48498,2.576999 1.4157,0.778931 2.81969,1.577682 3.11999,1.774991 0.30029,0.197321 1.4235,0.830448 2.49601,1.406966 1.07248,0.576509 2.02018,1.102851 2.10596,1.169645 0.0859,0.06682 1.20405,0.701685 2.48501,1.4109 3.27825,1.815037 3.69609,2.055305 3.92317,2.256031 0.2443,0.21599 0.46414,-0.121094 1.09025,-1.672197 0.56816,-1.407452 0.64018,-1.495748 1.21766,-1.492739 0.65045,0.0035 0.75874,0.104543 1.153,1.077385 0.59345,1.464207 0.89161,2.065822 1.02661,2.071363 0.13009,0.006 4.87124,-2.577187 5.17225,-2.817494 0.0856,-0.06851 1.209,-0.704932 2.49599,-1.414324 1.287,-0.709381 2.76121,-1.531679 3.27599,-1.827334 0.5148,-0.295663 1.7784,-1.006671 2.80801,-1.580018 1.02958,-0.573344 2.18685,-1.22698 2.57172,-1.452538 0.38485,-0.225556 1.28963,-0.746965 2.01059,-1.158678 l 1.31085,-0.748571 -2.16658,2.322815 c -1.19164,1.277553 -3.11432,3.360156 -4.27258,4.628029 -1.15831,1.267868 -2.17621,2.281149 -2.26201,2.251751 -0.0859,-0.02938 -0.10407,0.0023 -0.0409,0.06932 0.0635,0.06756 -0.86635,1.178836 -2.06624,2.469469 l -2.18157,2.34659 -1.52177,0.401816 c -2.9662,0.783216 -3.28852,0.922297 -4.03623,1.741657 -0.38961,0.426923 -0.77394,0.714066 -0.87062,0.650424 -0.10407,-0.06862 -0.12904,-0.03818 -0.0627,0.07647 0.0614,0.105495 -0.0713,0.384143 -0.29748,0.624936 -0.37246,0.396669 -0.42465,0.4103 -0.59897,0.156367 -0.17405,-0.253546 -0.19096,-0.248817 -0.19096,0.0534 0,0.182374 0.0416,0.318232 0.0926,0.301913 0.051,-0.01631 0.4796,0.388263 0.95259,0.899079 l 0.86,0.928774 -1.296,1.351323 c -0.79222,0.826024 -1.38159,1.316322 -1.51623,1.261292 -0.12124,-0.04946 -0.26608,-0.01087 -0.32212,0.08533 -0.0619,0.106799 -0.005,0.136692 0.14024,0.07663 0.1332,-0.05435 0.24222,-0.02446 0.24222,0.06712 0,0.518642 -0.56531,0.155171 -1.94385,-1.250096 z m 13.08174,-10.981192 c 0.0442,-0.07612 -0.0182,-0.138431 -0.13997,-0.138431 -0.12124,0 -0.1842,0.06231 -0.13997,0.138431 0.0442,0.07612 0.10719,0.138459 0.13997,0.138459 0.0328,0 0.0957,-0.06234 0.13997,-0.138459 z m -18.54786,-1.855258 c -0.0531,-0.09134 -0.18004,-0.165009 -0.28221,-0.163596 -0.11161,0.0012 -0.0924,0.06682 0.0484,0.163596 0.29972,0.206261 0.35371,0.206261 0.2339,0 z m 0.66183,-0.982573 c -0.2365,-0.161558 -0.47638,-0.342861 -0.53278,-0.402949 -0.15559,-0.165797 4.94049,-5.44621 5.13356,-5.319138 0.0921,0.06066 0.12332,0.034 0.069,-0.05924 -0.0539,-0.09324 0.28421,-0.609416 0.75179,-1.147131 l 0.85016,-0.977656 3.51407,3.736818 c 1.93274,2.055251 3.5141,3.782157 3.5141,3.837579 0,0.05544 -0.28333,0.236833 -0.62962,0.403128 l -0.62957,0.302353 -2.82617,-3.018469 c -1.5544,-1.660167 -2.87069,-3.018485 -2.92506,-3.018485 -0.0544,0 -1.35547,1.345747 -2.89124,2.990557 -1.53578,1.644821 -2.83193,2.985098 -2.88029,2.978426 -0.0487,-0.0071 -0.28159,-0.144301 -0.51821,-0.305862 z"
       id="path4" />
    <text
       xml:space="preserve"
       style="font-style:normal;font-variant:normal;font-weight:bold;font-stretch:normal;font-size:14.1505px;font-family:Calibri;-inkscape-font-specification:'Calibri Bold';text-align:start;writing-mode:lr-tb;direction:ltr;text-anchor:start;fill:#ffffff;stroke-width:1.17921"
       x="38.464771"
       y="134.96819"
       id="text1"
       transform="scale(0.95876103,1.0430128)"><tspan
         id="tspan1"
         style="font-style:normal;font-variant:normal;font-weight:bold;font-stretch:normal;font-family:Calibri;-inkscape-font-specification:'Calibri Bold';fill:#ffffff;stroke-width:1.17921"
         x="38.464771"
         y="134.96819">SURVIVORS IN AN APOCALYPTIC WORLD</tspan></text>
  </g>
</svg>
