<?xml version="1.0" encoding="UTF-8" standalone="no"?>
<!-- Created with Inkscape (http://www.inkscape.org/) -->

<svg
   version="1.1"
   id="svg1"
   width="981"
   height="387"
   viewBox="0 0 981 387"
   sodipodi:docname="pemburu.svg"
   inkscape:version="1.4.2 (f4327f4, 2025-05-13)"
   xmlns:inkscape="http://www.inkscape.org/namespaces/inkscape"
   xmlns:sodipodi="http://sodipodi.sourceforge.net/DTD/sodipodi-0.dtd"
   xmlns="http://www.w3.org/2000/svg"
   xmlns:svg="http://www.w3.org/2000/svg">
  <defs
     id="defs1" />
  <sodipodi:namedview
     id="namedview1"
     pagecolor="#ffffff"
     bordercolor="#000000"
     borderopacity="0.25"
     inkscape:showpageshadow="2"
     inkscape:pageopacity="0.0"
     inkscape:pagecheckerboard="0"
     inkscape:deskcolor="#d1d1d1"
     showgrid="false"
     inkscape:zoom="0.7196738"
     inkscape:cx="490.5"
     inkscape:cy="193.83782"
     inkscape:window-width="1366"
     inkscape:window-height="705"
     inkscape:window-x="-8"
     inkscape:window-y="-8"
     inkscape:window-maximized="1"
     inkscape:current-layer="g1" />
  <g
     inkscape:groupmode="layer"
     inkscape:label="Image"
     id="g1">
    <path
       style="fill:#000000"
       d="m 95.722759,328.05531 c -0.17144,-0.27739 51.808351,-0.50434 115.510631,-0.50434 63.70229,0 115.59733,0.225 115.32233,0.5 -0.65662,0.65662 -230.427161,0.66094 -230.832961,0.004 z m 1.55701,-12.25291 c 0.0505,-4.50584 0.22765,-4.972 1.25,-3.28873 0.65515,1.0787 2.428691,3.25081 3.941191,4.82692 1.5125,1.57611 2.75,3.05604 2.75,3.28873 0,0.2327 -1.8,0.42308 -4,0.42308 h -4.000001 z m 9.941191,4.35699 c 0,-0.49116 0.70656,-1.16415 1.57014,-1.49553 3.12131,-1.19776 1.16102,-4.9868 -4.02762,-7.78496 -6.156281,-3.32 -7.542521,-5.1695 -7.542521,-10.06308 0,-4.36555 3.490101,-8.76342 6.954551,-8.76342 2.36316,0 2.47011,0.34715 0.88763,2.8811 -1.68519,2.69843 -0.44132,4.84172 3.85066,6.63503 6.093,2.54581 8.30716,5.217 8.30716,10.02182 0,3.19306 -0.62695,4.81628 -2.63636,6.82569 -2.50277,2.50276 -7.36364,3.65358 -7.36364,1.74335 z m 19.5,-0.30194 c -3.23307,-1.83335 -3.46862,-2.77943 -3.48469,-13.99603 -0.009,-6.03115 -0.45118,-10.96037 -1.01531,-11.30902 -2.52641,-1.56141 -0.4615,-2.5 5.5,-2.5 5.9615,0 8.02641,0.93859 5.5,2.5 -0.57189,0.35345 -1,5.49071 -1,12 0,6.50929 0.42811,11.64655 1,12 3.58963,2.21851 -2.67209,3.47572 -6.5,1.30505 z m 9.5,0.58887 c 0,-0.33334 1.125,-1.491 2.5,-2.57258 2.36298,-1.85872 2.5,-2.5039 2.5,-11.77148 0,-7.49558 -0.3533,-10.09818 -1.5,-11.04986 -2.46599,-2.04659 -1.72445,-3 2.33333,-3 4.82716,0 5.49691,0.66976 3.08334,3.08333 -1.63334,1.63334 -1.91667,3.39493 -1.91667,11.91667 0,8.66667 -0.26667,10.26667 -2,12 -1.87316,1.87316 -5,2.74487 -5,1.39392 z m 14,-0.3349 c 0,-0.51754 0.45,-1.2191 1,-1.55902 0.57189,-0.35345 1,-5.49071 1,-12 0,-6.50929 -0.42811,-11.64655 -1,-12 -2.4098,-1.48934 -0.59061,-2.5 4.5,-2.5 h 5.5 v 12.94098 c 0,7.54864 0.41669,13.19851 1,13.55902 2.52641,1.56141 0.4615,2.5 -5.5,2.5 -3.575,0 -6.5,-0.42344 -6.5,-0.94098 z m 16.57143,-0.63045 c -0.94638,-0.94638 -1.57143,-3.29978 -1.57143,-5.91667 0,-2.56809 -0.51123,-4.53037 -1.25,-4.79791 -1,-0.36215 -1,-0.8761 0,-2.56977 1.48737,-2.51911 1.68086,-11.14422 0.25,-11.14422 -0.55,0 -1,-0.73388 -1,-1.63084 0,-1.31597 0.6997,-1.5173 3.62403,-1.04275 4.88283,0.79238 7.37597,3.24497 7.37597,7.256 0,2.34975 -0.74794,3.86076 -2.65266,5.35901 -1.45897,1.14763 -2.47147,2.19279 -2.25,2.32258 0.22146,0.1298 1.30266,0.73138 2.40266,1.33685 1.19671,0.6587 2.12586,2.36569 2.31336,4.25 0.19159,1.92544 0.87161,3.14915 1.75,3.14915 1.96245,0 1.80324,1.35826 -0.3921,3.34501 -2.3099,2.09043 -6.55175,2.13165 -8.59983,0.0836 z m 20.92013,0.3884 c -0.27339,-0.72433 -2.08138,-6.71697 -4.01775,-13.31697 -1.93636,-6.6 -3.96293,-12.15093 -4.50347,-12.33541 -2.78086,-0.94905 0.91906,-2.16459 6.58868,-2.16459 6.25694,0 7.47197,0.56901 5.47636,2.56462 -0.6195,0.6195 -0.0672,4.24816 1.54361,10.14204 3.02604,11.07204 2.49475,15.59486 -1.89247,16.11031 -1.56381,0.18373 -2.90684,-0.23662 -3.19496,-1 z m 18.00844,0.18303 c -0.33992,-0.55 -0.14148,-1 0.44098,-1 0.68888,0 1.05902,-4.36893 1.05902,-12.5 0,-8.13107 -0.37014,-12.5 -1.05902,-12.5 -0.58246,0 -0.7809,-0.45 -0.44098,-1 0.33992,-0.55 3.26492,-1 6.5,-1 3.23508,0 6.16008,0.45 6.5,1 0.33992,0.55 0.14148,1 -0.44098,1 -0.68888,0 -1.05902,4.36893 -1.05902,12.5 0,8.13107 0.37014,12.5 1.05902,12.5 0.58246,0 0.7809,0.45 0.44098,1 -0.33992,0.55 -3.26492,1 -6.5,1 -3.23508,0 -6.16008,-0.45 -6.5,-1 z m 21.04637,-11.75 c -2.04973,-7.0125 -4.13619,-13.1775 -4.63658,-13.7 -1.91089,-1.99534 -0.70038,-2.55 5.56521,-2.55 h 6.475 l -0.5206,2.75 c -0.28632,1.5125 0.5345,6.35 1.82405,10.75 1.83536,6.26228 2.14951,8.81456 1.44626,11.75 -0.76955,3.21219 -1.2948,3.75 -3.66247,3.75 -2.67938,0 -2.87828,-0.39069 -6.49087,-12.75 z m 26.72306,11.53817 c -2.91524,-1.40688 -6.26943,-8.43475 -6.26943,-13.13601 0,-7.21928 4.9149,-14.65216 9.68856,-14.65216 2.36778,0 3.09951,1.39491 1.31144,2.5 -0.57633,0.35619 -1,5.67705 -1,12.55902 0,7.29399 0.38916,11.94098 1,11.94098 0.55,0 1,0.45 1,1 0,1.27939 -2.85962,1.17368 -5.73057,-0.21183 z m 8.37358,-0.53817 c 0.47135,-0.9625 0.85699,-6.7 0.85699,-12.75 0,-6.05 -0.38564,-11.7875 -0.85699,-12.75 -1.12991,-2.30731 1.49455,-2.3612 4.94329,-0.1015 3.68365,2.41363 5.4137,6.52055 5.4137,12.8515 0,6.33095 -1.73005,10.43787 -5.4137,12.8515 -3.44874,2.2597 -6.0732,2.20581 -4.94329,-0.1015 z m 13.35699,0.80902 c 0,-0.51754 0.45,-1.2191 1,-1.55902 0.57189,-0.35345 1,-5.49071 1,-12 0,-6.50929 -0.42811,-11.64655 -1,-12 -2.4098,-1.48934 -0.59061,-2.5 4.5,-2.5 h 5.5 v 13.03138 c 0,10.63871 0.27436,13.13667 1.49426,13.60479 0.82184,0.31537 1.24528,0.97625 0.94098,1.46861 -0.74007,1.19746 -13.43524,1.15422 -13.43524,-0.0458 z m 16.5567,-1.28153 c -0.85618,-1.22237 -1.5567,-3.92237 -1.5567,-6 0,-2.07762 -0.45,-3.77749 -1,-3.77749 -0.55,0 -1,-0.675 -1,-1.5 0,-0.825 0.45,-1.5 1,-1.5 0.55,0 1,-2.44844 1,-5.44098 0,-2.99254 -0.45,-5.7191 -1,-6.05902 -1.93826,-1.19791 -0.96683,-2.5 1.86514,-2.5 4.37375,0 8.13486,3.46812 8.13486,7.50115 0,3.19244 -2.07142,6.49885 -4.07143,6.49885 -1.73707,0 -0.93659,1.52223 1.32143,2.51287 1.54341,0.67713 2.34841,2.00776 2.56336,4.23713 0.1941,2.01311 0.86012,3.25 1.75,3.25 2.10085,0 1.75451,2.75951 -0.49762,3.96482 -3.20009,1.71263 -6.83288,1.20573 -8.50904,-1.18733 z m 13.50211,-3.02749 c 0.0505,-4.50584 0.22765,-4.972 1.25,-3.28873 0.65515,1.0787 2.42869,3.25081 3.94119,4.82692 1.5125,1.57611 2.75,3.05604 2.75,3.28873 0,0.2327 -1.8,0.42308 -4,0.42308 h -4 z m 9.94119,4.35699 c 0,-0.49116 0.70656,-1.16415 1.57014,-1.49553 3.12131,-1.19776 1.16102,-4.9868 -4.02762,-7.78496 -6.15628,-3.32 -7.54252,-5.1695 -7.54252,-10.06308 0,-4.36555 3.4901,-8.76342 6.95455,-8.76342 2.36316,0 2.47011,0.34715 0.88763,2.8811 -1.68519,2.69843 -0.44132,4.84172 3.85066,6.63503 6.093,2.54581 8.30716,5.217 8.30716,10.02182 0,3.19306 -0.62695,4.81628 -2.63636,6.82569 -2.50277,2.50276 -7.36364,3.65358 -7.36364,1.74335 z m 24.5,-0.10699 c -0.33992,-0.55 -0.14148,-1 0.44098,-1 0.68888,0 1.05902,-4.36893 1.05902,-12.5 0,-8.13107 -0.37014,-12.5 -1.05902,-12.5 -0.58246,0 -0.7809,-0.45 -0.44098,-1 0.33992,-0.55 3.26492,-1 6.5,-1 3.23508,0 6.16008,0.45 6.5,1 0.33992,0.55 0.14148,1 -0.44098,1 -0.68888,0 -1.05902,4.36893 -1.05902,12.5 0,8.13107 0.37014,12.5 1.05902,12.5 0.58246,0 0.7809,0.45 0.44098,1 -0.33992,0.55 -3.26492,1 -6.5,1 -3.23508,0 -6.16008,-0.45 -6.5,-1 z m 17.06476,0.10478 c -0.3043,-0.49236 0.11914,-1.15324 0.94098,-1.46861 1.16522,-0.44713 1.49426,-2.46506 1.49426,-9.1638 0,-5.47229 0.36298,-8.36607 1,-7.97237 0.55,0.33992 1,3.74148 1,7.55902 0,5.50705 0.39596,7.33694 1.91667,8.85765 1.05416,1.05416 1.65416,2.17916 1.33333,2.5 -0.92599,0.92599 -7.0744,0.67647 -7.68524,-0.31189 z m 9.54871,-12.15325 c -4.06258,-7.15273 -8.11258,-13.41267 -9,-13.91099 -1.48205,-0.83224 -1.48094,-0.95712 0.0136,-1.5331 0.89488,-0.34489 3.77914,-0.48765 6.40946,-0.31725 l 4.7824,0.30981 5.34054,9.49467 c 4.37425,7.77676 5.34054,10.35508 5.34054,14.25 0,4.52624 -0.13248,4.75428 -2.75,4.73357 -2.4739,-0.0196 -3.49161,-1.32746 -10.13653,-13.02671 z m 27.88653,12.09816 c 0,-0.52267 0.69453,-1.33899 1.54341,-1.81404 0.84887,-0.47506 2.63584,-4.83438 3.97103,-9.6874 1.3352,-4.85301 2.66567,-9.06169 2.9566,-9.35262 1.11577,-1.11578 0.45546,5.09893 -1.15859,10.90434 -1.33517,4.80234 -1.43957,6.46683 -0.5,7.97133 1.73135,2.77233 1.58118,2.9287 -2.81245,2.9287 -2.2,0 -4,-0.42764 -4,-0.95031 z m 13,0.009 c 0,-0.51754 0.40775,-1.19299 0.90612,-1.501 0.49837,-0.30801 0.67088,-1.45956 0.38337,-2.55902 -0.37448,-1.43199 -1.36425,-1.999 -3.48945,-1.999 -3.44463,0 -3.42143,-2.31194 0.0283,-2.81955 2.562,-0.37699 2.60983,-0.95958 0.67167,-8.18045 -0.81194,-3.025 -1.4816,-6.76337 -1.48813,-8.3075 -0.0113,-2.67987 0.17832,-2.79352 4.17205,-2.5 l 4.18392,0.3075 2.79532,12 c 1.53743,6.6 3.25467,12.78139 3.81608,13.73643 1.5809,2.68965 1.43368,2.7639 -5.47925,2.7639 -3.575,0 -6.5,-0.42344 -6.5,-0.94098 z m 15,0.0634 c 0,-0.48265 0.675,-1.43775 1.5,-2.12244 1.10276,-0.91521 1.5,-3.34668 1.5,-9.18146 0,-5.03641 0.36542,-7.71073 1,-7.31854 0.55,0.33992 1,3.91138 1,7.93657 0,5.28542 0.41671,7.66438 1.5,8.56343 2.49035,2.06681 1.71269,3 -2.5,3 -2.2,0 -4,-0.3949 -4,-0.87756 z m 9.95034,-12.24097 c -4.09769,-7.21484 -8.01284,-13.33799 -8.70034,-13.60664 -3.01823,-1.17943 -0.78213,-2.27448 4.6445,-2.27448 h 5.89451 l 5.60549,9.90012 c 4.56008,8.05376 5.6055,10.75799 5.6055,14.5 0,4.37116 -0.13921,4.59988 -2.79966,4.59988 -2.54532,0 -3.47649,-1.19177 -10.25,-13.11853 z m 28.04966,12.44762 c 0,-0.36919 0.68028,-1.42296 1.51173,-2.3417 0.83145,-0.91874 2.58833,-5.37355 3.90417,-9.89958 1.31585,-4.52603 2.66057,-8.49727 2.98828,-8.82497 1.26368,-1.26368 0.50407,4.32997 -1.50337,11.07058 -1.91012,6.41382 -1.95516,7.15402 -0.5,8.21806 2.51248,1.83717 1.91278,2.44887 -2.40081,2.44887 -2.2,0 -4,-0.30207 -4,-0.67126 z m 13.69371,-2.82874 c 0.5478,-3.37567 0.45676,-3.5 -2.56287,-3.5 -2.1163,0 -3.13084,-0.48607 -3.13084,-1.5 0,-0.93333 0.94444,-1.5 2.5,-1.5 1.375,0 2.5,-0.19649 2.5,-0.43665 0,-0.24016 -0.88334,-4.13508 -1.96299,-8.65538 -1.07964,-4.5203 -1.72808,-8.59881 -1.44098,-9.06335 0.2871,-0.46454 2.26512,-0.84462 4.3956,-0.84462 4.42864,0 3.87858,-1.06942 7.39901,14.38509 1.36375,5.98681 2.95876,11.36431 3.54445,11.95 2.10163,2.10163 0.9661,2.66491 -5.37222,2.66491 h -6.43713 z m 14.30629,2.55902 c 0,-0.51754 0.45,-1.2191 1,-1.55902 0.57189,-0.35345 1,-5.49071 1,-12 0,-6.50929 -0.42811,-11.64655 -1,-12 -2.4098,-1.48934 -0.59061,-2.5 4.5,-2.5 h 5.5 v 13.03138 c 0,10.63871 0.27436,13.13667 1.49426,13.60479 0.82184,0.31537 1.24528,0.97625 0.94098,1.46861 -0.74007,1.19746 -13.43524,1.15422 -13.43524,-0.0458 z m 32.26943,-0.27085 c -2.91524,-1.40688 -6.26943,-8.43475 -6.26943,-13.13601 0,-7.21928 4.9149,-14.65216 9.68856,-14.65216 2.36778,0 3.09951,1.39491 1.31144,2.5 -0.57633,0.35619 -1,5.67705 -1,12.55902 0,7.29399 0.38916,11.94098 1,11.94098 0.55,0 1,0.45 1,1 0,1.27939 -2.85962,1.17368 -5.73057,-0.21183 z m 8.37358,-0.53817 c 0.47135,-0.9625 0.85699,-6.7 0.85699,-12.75 0,-6.05 -0.38564,-11.7875 -0.85699,-12.75 -1.12991,-2.30731 1.49455,-2.3612 4.94329,-0.1015 3.68365,2.41363 5.4137,6.52055 5.4137,12.8515 0,6.33095 -1.73005,10.43787 -5.4137,12.8515 -3.44874,2.2597 -6.0732,2.20581 -4.94329,-0.1015 z m 17.47386,0.11931 c -5.01637,-3.51361 -6.68899,-13.92828 -3.27385,-20.38491 1.01366,-1.91642 3.46192,-4.37364 5.44057,-5.46049 3.60321,-1.97919 6.12391,-1.53141 3.89974,0.69276 -1.48036,1.48036 -1.64569,23.37954 -0.18333,24.28333 0.55,0.33992 1,1.04148 1,1.55902 0,1.51729 -4.35525,1.08088 -6.88313,-0.68971 z m 8.88313,0.63069 c 0,-0.55 0.49446,-1 1.09879,-1 0.60433,0 2.37065,-1.36153 3.92515,-3.02562 3.6139,-3.8687 4.84263,-2.15769 1.39385,1.94095 -2.46969,2.93506 -6.41779,4.21751 -6.41779,2.08467 z m 10,0.5 c 0,-0.275 0.84251,-1.34251 1.87225,-2.37225 1.02974,-1.02974 2.90638,-5.78685 4.17032,-10.57136 1.40743,-5.32772 2.5893,-8.17869 3.04954,-7.35628 0.41332,0.73856 -0.16521,4.68591 -1.28562,8.77189 -1.56161,5.69498 -1.77678,7.84593 -0.9218,9.21496 1.65122,2.64403 1.4779,2.81304 -2.88469,2.81304 -2.2,0 -4,-0.225 -4,-0.5 z m 13.67534,-0.15799 c -0.36189,-0.3619 -0.20413,-1.20486 0.35059,-1.87325 1.69074,-2.03722 0.003,-4.46876 -3.10153,-4.46876 -2.13283,0 -2.71504,-0.38202 -2.28603,-1.5 0.31659,-0.825 1.42746,-1.5 2.46862,-1.5 2.29309,0 2.36524,-1.65223 0.39301,-9 -2.44996,-9.12763 -2.20954,-10 2.75598,-10 h 4.25598 l 3.09471,12.75 c 1.70209,7.0125 3.43504,13.5375 3.85101,14.5 0.67209,1.55515 0.0949,1.75 -5.18402,1.75 -3.26718,0 -6.23642,-0.2961 -6.59832,-0.65799 z m 14.82466,-0.34201 c -0.33992,-0.55 -0.14148,-1 0.44098,-1 0.68888,0 1.05902,-4.36893 1.05902,-12.5 0,-8.13107 -0.37014,-12.5 -1.05902,-12.5 -0.58246,0 -0.7809,-0.45 -0.44098,-1 0.78411,-1.26872 13.5,-1.32431 13.5,-0.059 0,0.51754 -0.45,1.2191 -1,1.55902 -0.58331,0.36051 -1,6.01038 -1,13.55902 v 12.94096 h -5.44098 c -2.99254,0 -5.7191,-0.45 -6.05902,-1 z m 13.5,0.0455 c 0,-0.525 1.0125,-2.01395 2.25,-3.30878 1.2375,-1.29483 2.78604,-3.22778 3.44119,-4.29545 1.01974,-1.66182 1.19966,-1.18558 1.25,3.30878 l 0.0588,5.24995 h -3.5 c -1.925,0 -3.5,-0.42955 -3.5,-0.95455 z m 13,-0.0455 c 0,-0.55 0.45,-1 1,-1 2.33044,0 0.96157,-9.93276 -2.5,-18.14046 -1.925,-4.56435 -3.5,-8.42498 -3.5,-8.57918 0,-0.1542 2.925,-0.28036 6.5,-0.28036 6.29308,0 7.51507,0.55908 5.57359,2.55 -0.57166,0.58622 -0.0127,3.05609 1.45984,6.45 1.57526,3.63078 2.3999,7.46485 2.42641,11.28138 0.0291,4.18929 0.45323,5.9399 1.54016,6.35699 3.45537,1.32595 1.04338,2.36163 -5.5,2.36163 -4,0 -7,-0.42857 -7,-1 z m 22,0.059 c 0,-0.51754 0.45,-1.2191 1,-1.55902 0.57189,-0.35345 1,-5.49071 1,-12 0,-6.50929 -0.42811,-11.64655 -1,-12 -2.4098,-1.48934 -0.59061,-2.5 4.5,-2.5 h 5.5 v 12.94098 c 0,7.54864 0.41669,13.19851 1,13.55902 2.52641,1.56141 0.4615,2.5 -5.5,2.5 -3.575,0 -6.5,-0.42344 -6.5,-0.94098 z m 30.56476,0.0458 c -0.3043,-0.49236 0.11914,-1.15324 0.94098,-1.46861 1.2199,-0.46814 1.49426,-2.9661 1.49426,-13.60481 V 292.0524 h 4.5 4.5 v 13.03138 c 0,10.63871 0.27436,13.13667 1.49426,13.60479 3.11302,1.19458 0.14801,2.36383 -5.99426,2.36383 -3.51008,0 -6.63094,-0.40285 -6.93524,-0.89522 z m 21.43524,-0.1048 c 0,-0.55 0.45,-1 1,-1 0.61084,0 1,-4.64699 1,-11.94098 0,-6.88197 -0.42367,-12.20283 -1,-12.55902 -2.52641,-1.56141 -0.4615,-2.5 5.5,-2.5 5.9615,0 8.02641,0.93859 5.5,2.5 -0.57189,0.35345 -1,5.49071 -1,12 0,6.50929 0.42811,11.64655 1,12 2.52641,1.56141 0.4615,2.5 -5.5,2.5 -3.66667,0 -6.5,-0.4359 -6.5,-1 z m 21.11687,-0.63069 c -5.01637,-3.51361 -6.68899,-13.92828 -3.27385,-20.38491 1.01366,-1.91642 3.46192,-4.37364 5.44057,-5.46049 3.60321,-1.97919 6.12391,-1.53141 3.89974,0.69276 -1.48036,1.48036 -1.64569,23.37954 -0.18333,24.28333 0.55,0.33992 1,1.04148 1,1.55902 0,1.51729 -4.35525,1.08088 -6.88313,-0.68971 z m 8.88313,0.63069 c 0,-0.55 0.49446,-1 1.09879,-1 0.60433,0 2.37065,-1.36153 3.92515,-3.02562 3.6139,-3.8687 4.84263,-2.15769 1.39385,1.94095 -2.46969,2.93506 -6.41779,4.21751 -6.41779,2.08467 z m 29.62361,-0.75 c -0.28114,-0.9625 -1.70296,-6.25 -3.15962,-11.75 -1.45665,-5.5 -3.25853,-10.96092 -4.00417,-12.13538 -1.83822,-2.89536 -1.06553,-3.36462 5.54018,-3.36462 6.11876,0 7.56205,0.61785 5.95804,2.55055 -0.71365,0.8599 -0.40428,3.46744 1.01941,8.59201 1.77537,6.39045 1.89026,8.04745 0.87415,12.60744 -0.99177,4.4508 -1.51595,5.25 -3.44334,5.25 -1.30383,0 -2.4915,-0.74639 -2.78465,-1.75 z m 9.46263,-7.61412 c -2.10601,-8.38861 -2.2212,-9.90485 -1.1057,-14.55476 1.05026,-4.37798 1.57078,-5.14292 3.32467,-4.88588 1.67648,0.2457 2.51192,1.85508 4.31106,8.30476 2.57567,9.23349 2.76322,11.59337 1.33115,16.75 -0.80641,2.90375 -1.54566,3.75 -3.27585,3.75 -1.9861,0 -2.49567,-1.04062 -4.58533,-9.36412 z m 22.5496,6.90243 c -3.33695,-3.09258 -4.63584,-6.46553 -4.63584,-12.03831 0,-5.57278 1.29889,-8.94573 4.63584,-12.03831 3.18583,-2.95253 7.05416,-3.43374 5.72115,-0.71169 -0.47135,0.9625 -0.85699,6.7 -0.85699,12.75 0,6.05 0.38564,11.7875 0.85699,12.75 1.33301,2.72205 -2.53532,2.24084 -5.72115,-0.71169 z m 8.36416,1.46169 c 0,-0.55 0.45,-1 1,-1 0.61084,0 1,-4.64699 1,-11.94098 0,-6.88197 -0.42367,-12.20283 -1,-12.55902 -1.77322,-1.09591 -1.06455,-2.50064 1.25,-2.47776 10.45242,0.10329 13.43098,22.47153 3.66481,27.52181 -3.26397,1.68787 -5.91481,1.89221 -5.91481,0.45595 z m 15,0.059 c 0,-0.51754 0.45,-1.2191 1,-1.55902 0.57189,-0.35345 1,-5.49071 1,-12 0,-6.50929 -0.42811,-11.64655 -1,-12 -2.4098,-1.48934 -0.59061,-2.5 4.5,-2.5 h 5.5 v 12.94098 c 0,7.54864 0.41669,13.19851 1,13.55902 2.52641,1.56141 0.4615,2.5 -5.5,2.5 -3.575,0 -6.5,-0.42344 -6.5,-0.94098 z m 16.57143,-0.63045 c -0.94638,-0.94636 -1.57143,-3.29976 -1.57143,-5.91665 0,-2.56809 -0.51123,-4.53037 -1.25,-4.79791 -1,-0.36215 -1,-0.8761 0,-2.56977 1.48737,-2.51911 1.68086,-11.14422 0.25,-11.14422 -0.55,0 -1,-0.73388 -1,-1.63084 0,-1.31597 0.6997,-1.5173 3.62403,-1.04275 4.88283,0.79238 7.37597,3.24497 7.37597,7.256 0,2.34975 -0.74794,3.86076 -2.65266,5.35901 -1.45897,1.14763 -2.47147,2.19279 -2.25,2.32258 0.22146,0.1298 1.30266,0.73138 2.40266,1.33685 1.19671,0.6587 2.12586,2.36569 2.31336,4.25 0.19159,1.92544 0.87161,3.14915 1.75,3.14915 1.96245,0 1.80324,1.35826 -0.3921,3.34501 -2.3099,2.09043 -6.55175,2.13165 -8.59983,0.0836 z m 12.92857,0.57145 c -0.33992,-0.55 -0.14148,-1 0.44098,-1 0.68888,0 1.05902,-4.36893 1.05902,-12.5 0,-8.13107 -0.37014,-12.5 -1.05902,-12.5 -0.58246,0 -0.7809,-0.45 -0.44098,-1 0.78411,-1.26872 13.5,-1.32431 13.5,-0.059 0,0.51754 -0.45,1.2191 -1,1.55902 -0.58331,0.36051 -1,6.01038 -1,13.55902 v 12.94096 h -5.44098 c -2.99254,0 -5.7191,-0.45 -6.05902,-1 z m 13.5,0.0455 c 0,-0.525 1.0125,-2.01395 2.25,-3.30878 1.2375,-1.29483 2.78604,-3.22778 3.44119,-4.29545 1.01974,-1.66182 1.19966,-1.18558 1.25,3.30878 l 0.0588,5.24995 h -3.5 c -1.925,0 -3.5,-0.42955 -3.5,-0.95455 z m 9,-0.0455 c 0,-0.55 0.45,-1 1,-1 0.61084,0 1,-4.64699 1,-11.94098 0,-6.88197 -0.42367,-12.20283 -1,-12.55902 -2.4098,-1.48934 -0.59061,-2.5 4.5,-2.5 h 5.5 v 14.5 14.5 h -5.5 c -3.025,0 -5.5,-0.45 -5.5,-1 z m 13,0.12244 c 0,-0.48265 0.675,-1.43775 1.5,-2.12244 1.15489,-0.95848 1.5,-3.6043 1.5,-11.5 0,-7.8957 -0.34511,-10.54152 -1.5,-11.5 -3.70838,-3.07768 -0.14466,-4.0846 4.57955,-1.29394 3.7346,2.20608 5.92045,6.91148 5.92045,12.74473 0,5.38494 -1.85619,9.50433 -5.61488,12.46091 -2.69053,2.11637 -6.38512,2.81694 -6.38512,1.21074 z m -636,-12.67962 c 0,-1.40645 0.52032,-4.62357 1.15627,-7.14915 0.99941,-3.969 0.93368,-4.75473 -0.48446,-5.79169 -2.25189,-1.64663 -1.05711,-2.50198 3.49486,-2.50198 4.20325,0 4.84773,0.8854 1.95806,2.69003 -1.18113,0.73763 -2.51654,3.78789 -3.60772,8.24055 -1.83199,7.47562 -2.51701,8.70365 -2.51701,4.51224 z m 263,1.74704 c 0,-0.5895 0.45,-1.34994 1,-1.68986 0.55,-0.33992 1,-3.26492 1,-6.5 0,-3.23508 -0.45,-6.16008 -1,-6.5 -1.7072,-1.05511 -1.10054,-2.5 1.04966,-2.5 2.83195,0 7.57915,2.59031 8.32916,4.5448 1.17851,3.07115 0.61614,8.23979 -1.12882,10.37483 -1.88438,2.30562 -9.25,4.11337 -9.25,2.27023 z m 154,-0.13084 c 0,-0.51754 0.45,-1.2191 1,-1.55902 0.55,-0.33992 1,-3.26492 1,-6.5 0,-3.23508 -0.45,-6.16008 -1,-6.5 -1.7072,-1.05511 -1.10054,-2.5 1.04966,-2.5 2.83195,0 7.57915,2.59031 8.32916,4.5448 0.34165,0.89033 0.62118,2.89517 0.62118,4.4552 0,4.19891 -0.92397,5.90932 -4.07152,7.53699 -3.19931,1.65442 -6.92848,1.9354 -6.92848,0.52203 z m -459.98813,-1.25 c 0.007,-0.71996 0.63619,-3.65405 1.39924,-6.52019 1.18657,-4.45691 1.18485,-5.37926 -0.0119,-6.37245 -2.39011,-1.98364 -1.55832,-2.91638 2.60079,-2.91638 4.40584,0 4.94292,0.83669 2.15605,3.35878 -1.01417,0.91781 -2.39473,4.12988 -3.0679,7.13793 -1.1206,5.00735 -3.10458,8.43341 -3.07628,5.31231 z m 182.73813,-2.14081 c -0.4125,-1.00748 -0.75,-3.53988 -0.75,-5.62755 0,-2.15407 -0.64876,-4.3342 -1.5,-5.04066 -2.49035,-2.06681 -1.71269,-3 2.5,-3 4.15798,0 4.86832,0.73168 2.75855,2.84145 -0.6828,0.6828 -1.4703,3.8103 -1.75,6.95 -0.34408,3.86239 -0.7511,5.11615 -1.25855,3.87676 z m 66,0.75639 c -0.4125,-0.41686 -0.75,-2.87783 -0.75,-5.46882 0,-2.96751 -0.55511,-5.17159 -1.5,-5.95578 -2.49035,-2.06681 -1.71269,-3 2.5,-3 4.1878,0 4.99058,0.933 2.54742,2.96064 -0.86432,0.71733 -1.57302,3.43618 -1.75,6.71371 -0.16358,3.0295 -0.63492,5.16711 -1.04742,4.75025 z m 329.02016,-0.58116 c -0.33944,-0.88459 -0.13972,-3.48936 0.44383,-5.78839 0.7747,-3.05204 0.75405,-4.48701 -0.0765,-5.31755 -1.94857,-1.94858 -1.26772,-2.7375 2.36251,-2.7375 3.83691,0 4.2219,0.54137 2.07741,2.92126 -0.78242,0.86831 -2.04527,4.04289 -2.80633,7.05463 -0.87915,3.47907 -1.6088,4.8894 -2.00092,3.86755 z m -140.96675,-1.37282 c -0.38312,-0.38342 0.0252,-2.50112 0.90745,-4.70601 1.48654,-3.71523 1.48109,-4.07769 -0.0744,-4.94821 -2.46858,-1.38146 -1.0096,-2.8164 2.86354,-2.8164 3.81311,0 5.34276,1.42899 2.95815,2.76348 -0.87115,0.48752 -2.56811,3.02792 -3.77103,5.64534 -1.20292,2.61741 -2.50058,4.44522 -2.88371,4.0618 z m -71.31232,-4.18031 c -0.86319,-2.08467 -2.55759,-4.54703 -3.76532,-5.47192 -2.67569,-2.04903 -1.73228,-3.42743 1.25251,-1.83002 1.5221,0.81461 2.52264,0.84079 3.42765,0.0897 1.9127,-1.5874 2.59407,-0.26632 2.59407,5.02958 0,6.09756 -1.50123,7.03137 -3.50891,2.18266 z m 169,0 c -0.86319,-2.08467 -2.55759,-4.54703 -3.76532,-5.47192 -2.67569,-2.04903 -1.73228,-3.42743 1.25251,-1.83002 1.5221,0.81461 2.52264,0.84079 3.42765,0.0897 1.9127,-1.5874 2.59407,-0.26632 2.59407,5.02958 0,6.09756 -1.50123,7.03137 -3.50891,2.18266 z m -615.49109,0.13277 c 0,-0.86731 -1.35,-2.92693 -3,-4.57693 -1.65,-1.65 -3,-3.16654 -3,-3.37009 0,-0.20355 1.8,-0.29831 4,-0.21058 l 4,0.15951 v 4.7875 c 0,2.63313 -0.45,4.78751 -1,4.78751 -0.55,0 -1,-0.70962 -1,-1.57692 z m 208,0 c 0,-0.86731 -1.35,-2.92693 -3,-4.57693 -1.65,-1.65 -3,-3.16654 -3,-3.37009 0,-0.20355 1.8,-0.29831 4,-0.21058 l 4,0.15951 v 4.7875 c 0,2.63313 -0.45,4.78751 -1,4.78751 -0.55,0 -1,-0.70962 -1,-1.57692 z m 346,-3.42308 c 0,-4.66667 0.16667,-5 2.5,-5 2.46472,0 3.49906,2.26452 1.57694,3.45245 -0.50769,0.31377 -1.21844,1.91532 -1.57946,3.55902 -1.02895,4.68479 -2.49748,3.50204 -2.49748,-2.01147 z m 21,3.19113 c 0,-0.99488 -0.66069,-2.68238 -1.4682,-3.75 -2.18031,-2.88263 -1.84054,-4.44113 0.9682,-4.44113 2.33333,0 2.5,0.33333 2.5,5 0,2.75 -0.45,5 -1,5 -0.55,0 -1,-0.81399 -1,-1.80887 z m -80.5,-108.24965 c -9.5927,-0.73092 -17.43819,-2.78968 -24.45153,-6.41641 -4.85354,-2.50987 -11.9179,-9.37647 -14.38276,-13.98012 -2.10593,-3.93329 -2.1799,-5.30097 -2.6797,-49.54495 -0.28269,-25.024992 -0.86082,-46.202742 -1.28472,-47.061662 -0.4239,-0.85891 -2.32871,-2.12504 -4.23292,-2.81361 -4.57841,-1.65557 -5.78383,-5.6411 -2.50834,-8.29344 2.06226,-1.66991 4.54859,-1.83128 28.2165,-1.83128 14.89653,0 26.72894,0.41423 27.77156,0.97222 4.36618,2.33671 3.12471,7.13487 -2.44857,9.46353 -2.07931,0.8688 -3.65559,2.34374 -4.00586,3.74835 -0.31764,1.27375 -0.44616,23.2409 -0.2856,48.815892 0.32415,51.63097 0.1973,50.64624 6.92335,53.74275 l 3.81699,1.75725 0.0258,6.25 c 0.0142,3.4375 -0.0867,6.18327 -0.2242,6.10171 -0.1375,-0.0816 -4.75,-0.49116 -10.25,-0.91023 z m 264,0 c -15.34883,-1.1695 -26.91808,-6.12744 -34.89078,-14.95227 -6.34297,-7.02091 -6.60922,-9.30121 -6.60922,-56.60561 0,-24.037112 -0.40642,-43.322372 -0.94272,-44.732922 -0.51849,-1.36374 -1.98099,-2.79626 -3.25,-3.18338 -5.69498,-1.73729 -7.48251,-6.1805 -3.58477,-8.91059 3.31148,-2.31945 53.2435,-2.31945 56.55498,0 3.99292,2.79675 2.38743,6.49585 -3.9999,9.21593 -1.49733,0.63764 -2.9813,2.19084 -3.29772,3.45155 -0.31642,1.2607 -0.44133,22.98851 -0.27759,48.283992 0.28526,44.06661 0.38246,46.13833 2.32217,49.49182 1.11345,1.925 3.46621,4.175 5.22836,5 3.09925,1.451 3.20461,1.70416 3.22555,7.75 0.0119,3.4375 -0.0909,6.18327 -0.22836,6.10171 -0.1375,-0.0816 -4.75,-0.49116 -10.25,-0.91023 z m -245.5,-5.94148 c 0,-5.0439 0.27886,-6.00156 1.75,-6.00977 3.53013,-0.0197 11.97947,-4.83833 15.09959,-8.61123 5.81572,-7.03247 6.15278,-9.79952 6.12845,-50.3105 -0.0256,-42.619382 -0.0412,-42.703862 -8.93592,-48.233092 -4.11999,-2.56112 -5.04212,-3.64924 -5.04212,-5.94969 0,-1.75999 0.72507,-3.20339 1.93426,-3.85053 1.08888,-0.58275 8.54757,-1.03518 17.06574,-1.03518 8.51817,0 15.97686,0.45243 17.06574,1.03518 3.56856,1.90984 2.40812,5.62771 -2.9604,9.48461 -8.67318,6.23106 -8.52512,5.41639 -9.17489,50.480202 -0.39925,27.68947 -0.94861,40.696 -1.83732,43.5 -3.25476,10.26918 -12.13789,19.87646 -21.67901,23.44625 -8.8665,3.31738 -9.41412,3.08782 -9.41412,-3.94625 z m 145.63726,4.53519 c -4.74969,-1.69322 -9.13845,-5.74896 -11.94128,-11.03519 -1.84474,-3.47923 -2.19085,-6.23662 -2.65842,-21.17931 -0.59995,-19.17313 -1.48584,-21.85001 -7.86898,-23.77749 -3.03853,-0.91752 -3.16858,-1.17405 -3.16858,-6.25 0,-4.68268 0.23826,-5.2932 2.06574,-5.2932 3.37653,0 6.01379,-1.94609 7.51892,-5.54837 1.80117,-4.31082 1.88242,-32.250942 0.1089,-37.451622 -0.88929,-2.60775 -2.26777,-4.00986 -5.40732,-5.5 -4.17528,-1.98174 -4.2141,-2.0493 -4.25,-7.3986 l -0.0362,-5.39861 11.25,0.57529 c 18.25528,0.93353 29.18873,5.62993 35.5839,15.28487 5.67696,8.57064 6.52339,21.44393 2.03745,30.987342 -2.59459,5.51975 -10.27759,12.57893 -16.04668,14.74378 -11.54562,4.33247 -11.21584,3.66265 -2.85958,5.80815 8.55643,2.19689 13.6615,5.2323 17.704,10.52658 2.7468,3.59735 2.84062,4.12029 3.15755,17.60015 0.36551,15.54566 1.1257,17.107 6.03778,12.40094 3.2503,-3.11399 4.27308,-3.24043 6.48059,-0.80116 3.24191,3.58227 1.91195,7.79783 -4.74613,15.04372 -5.12014,5.57216 -11.76177,8.11371 -21.09888,8.07388 -4.4,-0.0188 -9.73823,-0.65379 -11.86274,-1.41115 z m 118.36274,-4.34614 v -5.81095 l 4.89718,-1.25511 c 5.87259,-1.5051 12.30991,-6.72632 15.38731,-12.48044 2.16579,-4.04958 2.22141,-5.02908 2.4785,-43.64255 0.26258,-39.437942 0.25944,-39.506152 -2,-43.422962 -1.24464,-2.15763 -4.28799,-5.34254 -6.76299,-7.07758 -4.99646,-3.50264 -6.31524,-7.06455 -3.40384,-9.19342 2.21768,-1.62161 31.51552,-1.85181 34.46958,-0.27085 1.22253,0.65428 1.93426,2.09116 1.93426,3.90498 0,2.32001 -0.81627,3.34816 -4.26075,5.36676 -2.54408,1.49093 -5.26367,4.24881 -6.75,6.84502 l -2.48925,4.34806 -0.5204,39.999992 c -0.49641,38.15682 -0.62094,40.24779 -2.70239,45.37755 -2.83064,6.97615 -6.62727,12.38934 -11.0617,15.77165 -4.14141,3.1588 -13.71341,7.29276 -16.96551,7.32706 -2.07792,0.0219 -2.25,-0.42067 -2.25,-5.78721 z m -844.428568,2.23952 c -2.876124,-2.87612 -1.97239,-6.27554 2.178571,-8.19475 2.0625,-0.9536 4.080609,-2.18382 4.484687,-2.73382 0.96008,-1.30679 0.96008,-101.693202 0,-102.999992 -0.404078,-0.55 -2.422187,-1.78022 -4.484687,-2.73382 -2.731689,-1.263 -3.745842,-2.3492 -3.734687,-4 0.03534,-5.23044 0.100193,-5.24409 26.44695,-5.56587 l 24.537733,-0.29968 v 56.467892 c 0,31.05734 0.26479,57.15793 0.58843,58.00131 0.32363,0.84339 2.23613,2.06383 4.250001,2.71211 5.06432,1.63025 6.16157,2.71035 6.16157,6.06525 0,2.1953 -0.62486,3.13987 -2.5651,3.87755 -1.43558,0.54581 -14.394241,0.97525 -29.428568,0.97525 -23.088005,0 -27.084325,-0.22085 -28.4349,-1.57143 z m 122.388598,-0.25985 c -3.29044,-2.66444 -2.06987,-6.63794 2.55246,-8.3094 2.73019,-0.98725 3.72435,-2.05274 4.49134,-4.81361 1.31147,-4.72082 1.31147,-93.370592 0,-98.091412 -0.76699,-2.76087 -1.76115,-3.82636 -4.49134,-4.81361 -4.62233,-1.67146 -5.8429,-5.64496 -2.55246,-8.3094 2.04802,-1.65838 4.46979,-1.83128 25.65075,-1.83128 h 23.38922 v 63.999992 64 h -23.38922 c -21.18096,0 -23.60273,-0.1729 -25.65075,-1.83128 z m 57.03997,-3.05001 v -4.88128 l 4.63439,-1.16695 c 2.54892,-0.64183 6.30498,-2.01923 8.34681,-3.06089 5.64681,-2.88079 13.16779,-11.79205 15.92756,-18.87185 2.67852,-6.87134 5.78806,-8.8685 8.92588,-5.7328 1.40591,1.40496 1.71917,4.541 2.01073,20.12965 l 0.34538,18.46541 h -20.09538 -20.09537 z m 54.98375,3.06922 c -2.9629,-2.39922 -2.06594,-4.90351 3.05062,-8.51727 2.20326,-1.55614 4.9834,-4.70614 6.17809,-7 2.11538,-4.06166 2.16519,-5.00676 1.90592,-36.16125 -0.14643,-17.59483 3.4e-4,-31.72401 0.32616,-31.3982 0.32581,0.32582 2.46105,5.94658 4.74496,12.49059 l 4.15258,11.8982 0.5966,19.5 c 0.69705,22.78331 1.39023,25.07747 9.06515,30.00246 5.06897,3.25275 6.31419,5.00522 5.34714,7.52532 -1.10807,2.88756 -4.2525,3.47222 -18.67444,3.47222 -12.4653,0 -14.76299,-0.24942 -16.69278,-1.81207 z m 47.50933,0.56207 c -0.24428,-0.6875 -8.76068,-25.93041 -18.92532,-56.09537 -10.16464,-30.16494 -19.05677,-55.538922 -19.7603,-56.386612 -0.70352,-0.8477 -3.16635,-2.35022 -5.47296,-3.33895 -4.88567,-2.09424 -6.89832,-5.00703 -5.39746,-7.81141 0.55407,-1.03529 1.73171,-2.16029 2.61697,-2.5 0.88526,-0.33971 11.89043,-0.61765 24.45593,-0.61765 h 22.84636 l 1.94705,5.25 c 1.07087,2.8875 5.24204,14.64762 9.26925,26.1336 l 7.32221,20.883582 4.0526,-14.383582 4.05259,-14.3836 0.27282,15.000002 0.27283,14.99999 -9.05748,30.5 c -4.98162,16.775 -9.96094,33.5375 -11.06517,37.25 -1.78095,5.98767 -2.2888,6.75 -4.49673,6.75 -1.36897,0 -2.68891,-0.5625 -2.93319,-1.25 z m 25.67233,-0.34669 c -3.68454,-2.58076 -2.59091,-6.50567 2.33517,-8.38062 2.20031,-0.83748 4.56281,-1.88675 5.25,-2.33171 0.97534,-0.63154 1.24942,-13.40968 1.24942,-58.25 V 62.052408 h 23.80887 c 26.25597,0 27.62672,0.28128 27.02692,5.54593 -0.25044,2.19813 -1.18058,3.34467 -3.65927,4.51057 -1.82792,0.85979 -3.73353,2.21132 -4.23469,3.00338 -0.5166,0.81647 -0.9112,22.87622 -0.9112,50.940112 0,28.0639 0.3946,50.12365 0.9112,50.94012 0.50116,0.79207 2.40677,2.14359 4.23469,3.00339 2.47869,1.1659 3.40883,2.31243 3.65927,4.51056 0.60841,5.34017 -0.51591,5.54593 -30.30441,5.54593 -23.18733,0 -27.41451,-0.22984 -29.36597,-1.59669 z m 77.79462,-0.23459 c -3.35447,-2.71629 -2.08491,-6.42347 2.86575,-8.36815 3.09551,-1.21595 3.99842,-2.17156 4.5211,-4.78498 1.10868,-5.5434 0.76385,-95.399502 -0.37868,-98.676972 -0.70733,-2.02904 -2.1215,-3.35387 -4.49692,-4.21283 -4.58131,-1.65663 -5.78773,-5.64136 -2.51125,-8.2945 2.04802,-1.65838 4.46979,-1.83128 25.65075,-1.83128 h 23.38922 v 63.999992 64 h -23.38922 c -21.18096,0 -23.60273,-0.1729 -25.65075,-1.83128 z m 57.03997,-3.16872 c 0,-3.9152 0.34689,-5 1.59887,-5 3.06917,0 8.13402,-3.11722 9.42089,-5.79819 1.54771,-3.2244 2.52825,-24.66008 1.5033,-32.86358 -0.57862,-4.63107 -1.35022,-6.36539 -4.01957,-9.03474 -2.04389,-2.04389 -4.29485,-3.30349 -5.90349,-3.30349 -2.43744,0 -2.6,-0.29891 -2.6,-4.78083 0,-4.70604 0.0651,-4.80382 4.15941,-6.25 6.75269,-2.38515 8.28176,-5.40812 8.6886,-17.17733 0.64653,-18.702882 -1.66741,-25.657542 -9.18092,-27.593772 -2.9872,-0.7698 -3.18426,-1.11101 -3.46935,-6.00711 l -0.30226,-5.19095 8.30226,0.008 c 10.12607,0.009 19.13173,1.39549 26.16822,4.02818 16.26361,6.08499 23.74803,24.06819 16.31595,39.203122 -3.78931,7.71666 -9.60673,12.32262 -19.94466,15.79123 l -8.22798,2.76068 4.49537,1.16547 c 12.80775,3.32054 20.0469,8.08544 24.49536,16.12318 2.77196,5.00855 3,6.18071 3,15.42058 0,11.61227 -1.40475,15.44299 -8.13398,22.1811 -7.99218,8.00273 -18.43838,11.27159 -36.11602,11.30154 l -10.25,0.0173 z m 201.60534,3.70069 c -2.95449,-2.16038 -1.75719,-6.88731 2.21814,-8.75718 1.82792,-0.8598 3.73353,-2.21132 4.23469,-3.00339 0.5166,-0.81647 0.9112,-22.87622 0.9112,-50.94012 0,-28.063892 -0.3946,-50.123642 -0.9112,-50.940112 -0.50116,-0.79206 -2.40677,-2.14359 -4.23469,-3.00338 -2.47869,-1.1659 -3.40883,-2.31244 -3.65927,-4.51057 -0.5998,-5.26465 0.77095,-5.54593 27.02692,-5.54593 h 23.80887 v 56.928562 c 0,62.31416 -0.29383,59.24925 5.81993,60.70782 3.76638,0.89855 5.18007,2.24381 5.18007,4.92935 0,5.05832 -2.18132,5.43426 -31.53138,5.43426 -20.63898,0 -27.50932,-0.30928 -28.86328,-1.29931 z M 239.86298,147.8024 c -0.77225,-1.2375 -1.67329,-3.375 -2.00232,-4.75 -1.01156,-4.22724 -4.48678,-8.97722 -8.14876,-11.13785 -3.30281,-1.9487 -3.49094,-2.35078 -3.49094,-7.46093 0,-2.97067 0.369,-5.40122 0.82,-5.40122 0.451,0 2.69159,-1.60201 4.97908,-3.56002 3.02478,-2.58909 4.5696,-4.94238 5.6643,-8.62861 0.82786,-2.78772 2.01738,-5.68571 2.64336,-6.43997 1.51662,-1.827412 4.38515,-1.736652 6.32183,0.20004 1.33639,1.33638 1.57143,4.97098 1.57143,24.29999 0,16.34444 -0.33706,23.06563 -1.2,23.92857 -1.93593,1.93593 -5.63308,1.3936 -7.15798,-1.05 z M 104.22096,136.07145 c 0,-4.42665 0.26765,-5.04812 2.40517,-5.58461 1.32284,-0.33201 3.46034,-1.72586 4.75,-3.09745 2.29558,-2.44141 2.35121,-2.9667 2.6487,-25.00869 0.33899,-25.117022 0.15714,-25.948642 -6.35282,-29.053022 -3.25002,-1.54983 -3.45105,-1.93477 -3.45105,-6.60808 v -4.96239 l 9.25,0.66085 c 15.76273,1.12613 24.06288,4.29989 32.1372,12.28844 6.14294,6.07769 8.94323,13.19151 9.42826,23.95143 0.80528,17.864082 -5.60567,29.905542 -19.65898,36.924742 -5.82025,2.90704 -17.60672,5.37969 -25.90648,5.43484 l -5.25,0.0349 z M 257.5683,100.2871 c -0.63396,-0.404082 -2.33623,-3.411572 -3.78282,-6.683322 -5.03132,-11.37936 -11.90259,-17.44176 -22.18938,-19.57729 l -5.37514,-1.11588 v -5.4291 -5.4291 h 19 19 v 18.46482 c 0,17.23216 -0.12912,18.53392 -1.93426,19.500002 -2.27158,1.21571 -3.15517,1.26625 -4.7184,0.26987 z"
       id="path1" />
  </g>
</svg>
